<svg width="22" height="23" viewBox="0 0 22 23" fill="none" xmlns="http://www.w3.org/2000/svg">
<path d="M18.15 7.83805C18.2776 7.83805 18.3953 7.88205 18.4888 7.95575L18.5625 8.02505L18.5812 8.04705C19.2203 8.83911 19.6271 9.79297 19.7563 10.8025C19.8855 11.812 19.732 12.8375 19.313 13.765C18.8941 14.6925 18.2259 15.4855 17.383 16.0559C16.5401 16.6262 15.5555 16.9515 14.5387 16.9955L14.3 16.9999H7.70002C7.58885 17 7.4777 16.9967 7.36672 16.99L9.18942 18.8105C9.28037 18.9017 9.33645 19.0218 9.34791 19.1501C9.35937 19.2783 9.32547 19.4065 9.25212 19.5123L9.18942 19.5893C9.09828 19.6803 8.97812 19.7364 8.84988 19.7478C8.72164 19.7593 8.59344 19.7254 8.48762 19.652L8.41062 19.5893L5.66062 16.8393C5.56968 16.7482 5.51359 16.628 5.50214 16.4998C5.49068 16.3716 5.52458 16.2434 5.59792 16.1375L5.66062 16.0605L8.41062 13.3105C8.50763 13.2131 8.63762 13.1555 8.77497 13.1492C8.91232 13.1428 9.04707 13.1881 9.15266 13.2762C9.25826 13.3643 9.32704 13.4887 9.34545 13.6249C9.36386 13.7612 9.33056 13.8994 9.25212 14.0123L9.18942 14.0893L7.38872 15.8889L7.54272 15.8977L7.70002 15.8999H14.3C15.1309 15.9 15.9449 15.6648 16.6477 15.2216C17.3505 14.7783 17.9134 14.1451 18.2713 13.3952C18.6292 12.6453 18.7675 11.8094 18.6701 10.9842C18.5727 10.159 18.2437 9.3783 17.721 8.73235C17.6564 8.65147 17.616 8.55402 17.6043 8.45119C17.5926 8.34836 17.6102 8.24432 17.655 8.15102C17.6998 8.05773 17.7701 7.97898 17.8576 7.92381C17.9452 7.86864 18.0465 7.83929 18.15 7.83915V7.83805ZM12.8106 3.41055C12.9018 3.3196 13.0219 3.26352 13.1502 3.25206C13.2784 3.2406 13.4066 3.2745 13.5124 3.34785L13.5894 3.41055L16.3394 6.16055L16.4021 6.23755C16.4655 6.32939 16.4995 6.43835 16.4995 6.54995C16.4995 6.66154 16.4655 6.7705 16.4021 6.86235L16.3394 6.93935L13.5894 9.68935L13.5124 9.75205C13.4206 9.81543 13.3116 9.84938 13.2 9.84938C13.0884 9.84938 12.9795 9.81543 12.8876 9.75205L12.8106 9.68935L12.7479 9.61235C12.6845 9.5205 12.6506 9.41154 12.6506 9.29995C12.6506 9.18835 12.6845 9.07939 12.7479 8.98755L12.8106 8.91055L14.6113 7.11095L14.4573 7.10215L14.3 7.09995H7.70002C6.8684 7.0999 6.05379 7.33553 5.35061 7.77953C4.64743 8.22353 4.08448 8.85772 3.727 9.60859C3.36952 10.3595 3.23216 11.1963 3.33084 12.022C3.42951 12.8478 3.76018 13.6286 4.28452 14.2741C4.37219 14.391 4.40985 14.5379 4.38922 14.6825C4.36859 14.8271 4.29136 14.9576 4.17452 15.0452C4.11667 15.0887 4.05083 15.1202 3.98077 15.1382C3.91071 15.1562 3.83779 15.1602 3.76619 15.1499C3.62158 15.1293 3.49109 15.0521 3.40342 14.9352C2.76875 14.142 2.3662 13.1884 2.24039 12.1803C2.11459 11.1722 2.27046 10.149 2.69071 9.22408C3.11096 8.29916 3.77917 7.50871 4.62125 6.94039C5.46332 6.37206 6.44635 6.04807 7.46132 6.00435L7.70002 5.99995H14.3C14.4122 5.99995 14.5233 6.00325 14.6333 6.00985L12.8106 4.18935L12.7479 4.11235C12.6746 4.00653 12.6407 3.87833 12.6521 3.75009C12.6636 3.62185 12.7197 3.50169 12.8106 3.41055V3.41055Z" fill="#C4C4C4"/>
</svg>
