<svg width="51" height="52" viewBox="0 0 51 52" fill="none" xmlns="http://www.w3.org/2000/svg">
<path d="M25.5 4.75C21.2972 4.75 17.1887 5.99629 13.6941 8.33127C10.1996 10.6663 7.47593 13.985 5.86757 17.868C4.25921 21.7509 3.83839 26.0236 4.65832 30.1457C5.47826 34.2678 7.50212 38.0542 10.474 41.026C13.4459 43.9979 17.2322 46.0218 21.3543 46.8417C25.4764 47.6616 29.7491 47.2408 33.632 45.6324C37.515 44.0241 40.8338 41.3004 43.1687 37.8059C45.5037 34.3113 46.75 30.2029 46.75 26C46.75 23.2094 46.2004 20.4461 45.1325 17.868C44.0645 15.2898 42.4993 12.9472 40.526 10.974C38.5528 9.00074 36.2102 7.43547 33.632 6.36756C31.0539 5.29965 28.2906 4.75 25.5 4.75ZM21.3543 33V17.881L33 26L21.3543 33Z" fill="white"/>
</svg>
