<svg width="24" height="25" viewBox="0 0 24 25" fill="none" xmlns="http://www.w3.org/2000/svg">
<path d="M16.3395 15.9905C15.876 15.8443 15.2843 15.4633 14.622 14.8003C14.0535 14.2438 13.467 13.5268 12.867 12.7453C12.723 12.9365 12.5798 13.1278 12.4358 13.3228C12.0435 13.8538 11.6423 14.39 11.2335 14.9173C12.6615 16.6498 14.1435 18.3508 16.341 18.6313V20.6563L22.0073 17.3863L16.3403 14.114V15.9905H16.3395ZM6.89401 9.45053C7.46101 10.0055 8.04751 10.7225 8.64901 11.504C8.79451 11.3075 8.94151 11.114 9.08851 10.913C9.48034 10.3809 9.87836 9.85337 10.2825 9.33053C8.75851 7.48253 7.18276 5.65028 4.73551 5.56253H2.11051V8.18753H4.73551C5.22676 8.16728 5.99701 8.55128 6.89401 9.44978V9.45053ZM16.3395 8.25578V10.1578L22.0065 6.88553L16.3395 3.61328V5.59853C14.9115 5.76353 13.7708 6.60953 12.777 7.58153C11.1293 9.21953 9.68926 11.4575 8.26801 13.2365C6.86776 15.0643 5.46301 16.1518 4.73401 16.064H2.10901V18.689H4.73401C6.37276 18.6665 7.64401 17.7395 8.73901 16.6693C10.3845 15.0313 11.826 12.794 13.2465 11.0158C14.4038 9.50303 15.5595 8.51078 16.3395 8.25578V8.25578Z" fill="#C4C4C4"/>
</svg>
